<?xml version="1.0" encoding="utf-8"?>
<!-- Generator: Adobe Illustrator 16.0.0, SVG Export Plug-In . SVG Version: 6.00 Build 0)  -->
<!DOCTYPE svg PUBLIC "-//W3C//DTD SVG 1.1//EN" "http://www.w3.org/Graphics/SVG/1.1/DTD/svg11.dtd">
<svg version="1.1" xmlns="http://www.w3.org/2000/svg" xmlns:xlink="http://www.w3.org/1999/xlink" x="0px" y="0px" width="504px"
	 height="115.441px" viewBox="0 0 504 115.441" enable-background="new 0 0 504 115.441" xml:space="preserve">
<g id="c_symbol">
	<ellipse fill="#FFFFFF" cx="62.414" cy="58.411" rx="50.224" ry="50.159"/>
	<g>
		<path d="M48.964,29.904h54.816C94.718,16.718,79.538,8.064,62.332,8.064c-27.767,0-50.273,22.509-50.273,50.269
			c0,8.271,2.01,16.069,5.55,22.949L48.964,29.904z"/>
		<path fill="#E31837" d="M103.837,29.982l-9.561,15.616h-33.64L43.791,73.865h33.216L65.5,92.811H25.765
			c9.167,9.717,22.153,15.79,36.567,15.79c27.758,0,50.267-22.505,50.267-50.268C112.598,47.815,109.361,38.053,103.837,29.982z"/>
	</g>
</g>
<g id="county">
	<g>
		<path d="M185.877,44.625h-20.836c0-0.376,0-0.755,0-1.211c-0.305-3.943-2.35-5.985-4.701-5.906
			c-2.804,0.071-4.547,2.421-5.382,10.151c-0.074,1.134-0.148,2.351-0.148,3.565c0.075,2.422,0.228,3.86,0.527,5.225
			c0.684,3.562,1.442,4.923,2.73,5.757c1.968,1.218,4.999,0.229,6.062-2.045c0.528-1.136,0.832-2.499,0.985-6.515
			c0-0.305,0-0.607-0.074-0.909h20.915c0.075,1.291,0.075,2.649-0.079,4.017c-1.363,13.112-7.501,19.018-21.369,20.839
			c-3.259,0.451-6.441,0.451-9.471,0.076c-17.505-2.504-26.676-15.767-22.508-36.603c2.425-12.203,10.762-19.627,22.885-20.764
			c17.581-1.59,27.886,6.211,30.16,20.081C185.803,41.824,185.877,43.263,185.877,44.625z"/>
		<path d="M219.439,21.137c18.716-0.078,29.628,12.504,29.551,28.49c-0.077,15.916-9.547,28.267-29.551,28.114
			c-20.384-0.149-30.159-11.9-30.309-27.963C188.975,33.49,200.419,21.211,219.439,21.137z M213.146,50.841
			c0.381,5.456,1.516,12.804,6.064,12.582c4.016-0.229,6.061-7.883,6.061-13.721c0-5.907-1.514-13.562-6.514-13.79
			C213.68,35.684,212.768,44.625,213.146,50.841z"/>
		<path d="M252.317,58.266V21.817h22.885v32.733l0.075,1.14l0.078,0.606l0.075,1.288c0.073,2.046,0.608,3.032,1.817,3.866
			c1.44,1.059,3.258,1.059,4.773,0c1.214-0.834,1.743-1.82,1.822-3.866l0.152-1.441v-0.453l0.073-1.14V21.817h22.886v36.449
			c0,11.975-6.367,18.111-24.095,19.174c-2.203,0.077-4.25,0.077-6.446,0C258.686,76.377,252.317,70.241,252.317,58.266z"/>
		<path d="M311.859,76.377v-54.56h26.222l12.271,31.523l-0.529-31.523h17.126v54.56h-25.768l-12.5-30.838l0.529,30.838H311.859z"/>
		<path d="M370.799,35.989V21.817h49.104v14.171h-13.111v40.389h-22.884V35.989H370.799z"/>
		<path d="M422.391,21.817h21.673l6.291,19.855l6.136-19.855h21.592l-16.213,35.54v19.02h-23.034V57.207L422.391,21.817z"/>
	</g>
</g>
<g id="materials_corp">
	<path d="M147.543,88.885c-0.114,0.654-0.324,1.271-0.628,1.906l-3.561,7.335l-3.561-7.489c-0.266-0.559-0.495-1.136-0.666-1.752
		c-0.02,0.654-0.114,1.291-0.248,1.906l-1.466,6.776h-2.038l3.218-14.304l4.018,8.643c0.114,0.252,0.362,0.868,0.743,1.868
		c0.267-0.769,0.571-1.385,0.781-1.868l3.923-8.643l3.294,14.304h-2.057l-1.504-6.796C147.733,90.522,147.676,89.907,147.543,88.885
		z"/>
	<path d="M161.425,92.159l1.39-3.138c0.153-0.367,0.324-0.866,0.496-1.56c0.19,0.693,0.361,1.192,0.514,1.56l1.39,3.138H161.425z
		 M167.538,97.568h2.342l-6.589-14.304l-6.589,14.304h2.323l1.581-3.542h5.389L167.538,97.568z"/>
	<path d="M179.364,97.568h-2.209V85.708h-3.619v-1.905h9.426v1.905h-3.599V97.568z"/>
	<path d="M189.704,83.803h7.598v1.905h-5.389v3.446h5.389v1.964h-5.389v4.447h5.389v2.002h-7.598V83.803z"/>
	<path d="M207.471,89.676v-3.947h0.4c1.981,0,2.914,0.365,2.914,2.06c0,1.656-0.971,1.888-2.914,1.888H207.471z M207.338,91.408
		h0.247l4.533,6.16h2.495l-4.685-6.257c2.057-0.25,3.123-1.502,3.123-3.715c0-1.289-0.495-2.368-1.314-3.022
		c-0.838-0.655-1.923-0.771-3.39-0.771h-3.085v13.765h2.076V91.408z"/>
	<path d="M221.391,83.803h2.209v13.765h-2.209V83.803z"/>
	<path d="M234.417,92.159l1.39-3.138c0.153-0.367,0.324-0.866,0.496-1.56c0.19,0.693,0.361,1.192,0.514,1.56l1.39,3.138H234.417z
		 M240.529,97.568h2.342l-6.589-14.304l-6.589,14.304h2.323l1.581-3.542h5.389L240.529,97.568z"/>
	<path d="M249.194,83.803h2.209v11.763h4.951v2.002h-7.16V83.803z"/>
	<path d="M264.562,93.987c0.323,1.232,1.236,1.888,2.627,1.888c1.333,0,2.151-0.809,2.151-2.042c0-1.348-1.01-1.674-2.418-2.367
		c-2.419-1.193-3.751-2.118-3.751-4.197c0-2.213,1.618-3.772,4.093-3.772c2.019,0,3.409,0.828,3.924,2.272l-1.732,0.903
		c-0.534-0.848-1.162-1.25-2.021-1.25c-1.199,0-1.941,0.693-1.941,1.731c0,1.329,1.066,1.732,2.591,2.446
		c2.399,1.115,3.522,2.098,3.522,4.08c0,2.56-1.695,4.255-4.514,4.255c-2.322,0-3.848-1.117-4.304-3.119L264.562,93.987z"/>
	<path d="M295.277,85.537c-2.99,0-5.028,2.137-5.028,5.197c0,3.022,2.077,5.12,4.799,5.12c1.62,0,3.066-0.578,4.4-1.732v2.523
		c-1.2,0.865-2.591,1.289-4.228,1.289c-2.096,0-3.886-0.713-5.219-2.042c-1.333-1.327-2.055-3.176-2.055-5.178
		c0-2.022,0.722-3.83,2.074-5.178c1.352-1.348,3.123-2.06,5.16-2.06c1.637,0,3.066,0.48,4.399,1.424l-0.115,2.252
		C298.21,86.076,296.818,85.537,295.277,85.537z"/>
	<path d="M319.29,90.714c0,1.386-0.515,2.656-1.467,3.639c-0.95,0.982-2.171,1.501-3.504,1.501s-2.57-0.519-3.522-1.501
		s-1.447-2.253-1.447-3.639c0-1.385,0.495-2.676,1.447-3.657s2.209-1.503,3.522-1.503c1.315,0,2.571,0.521,3.504,1.503
		C318.775,88.039,319.29,89.33,319.29,90.714z M321.594,90.714c0-1.945-0.741-3.734-2.133-5.121
		c-1.389-1.366-3.18-2.098-5.142-2.098c-1.96,0-3.771,0.731-5.159,2.098c-1.392,1.387-2.115,3.158-2.115,5.121
		s0.724,3.735,2.115,5.101c1.371,1.368,3.217,2.119,5.159,2.119s3.753-0.751,5.142-2.119
		C320.853,94.45,321.594,92.677,321.594,90.714z"/>
	<path d="M330.811,89.676v-3.947h0.4c1.98,0,2.914,0.365,2.914,2.06c0,1.656-0.973,1.888-2.914,1.888H330.811z M330.678,91.408
		h0.248l4.531,6.16h2.495l-4.685-6.257c2.056-0.25,3.123-1.502,3.123-3.715c0-1.289-0.496-2.368-1.313-3.022
		c-0.838-0.655-1.925-0.771-3.39-0.771h-3.084v13.765h2.074V91.408z"/>
	<path d="M346.902,89.56v-3.831h0.57c2.059,0,3.067,0.347,3.067,2.002c0,1.599-1.029,1.829-3.067,1.829H346.902z M346.77,91.388
		h0.837c0.154,0,0.306,0,0.438,0c1.392,0,2.496-0.038,3.409-0.693c0.838-0.616,1.371-1.771,1.371-3.099
		c0-1.328-0.533-2.464-1.371-3.08c-0.913-0.674-2.018-0.713-3.409-0.713c-0.15,0-0.283,0-0.438,0h-2.913v13.765h2.076V91.388z"/>
	<path d="M371.239,90.714c0,1.386-0.513,2.656-1.467,3.639c-0.952,0.982-2.17,1.501-3.503,1.501c-1.332,0-2.57-0.519-3.523-1.501
		c-0.952-0.982-1.447-2.253-1.447-3.639c0-1.385,0.495-2.676,1.447-3.657c0.953-0.981,2.209-1.503,3.523-1.503
		c1.312,0,2.57,0.521,3.503,1.503C370.727,88.039,371.239,89.33,371.239,90.714z M373.544,90.714c0-1.945-0.743-3.734-2.133-5.121
		c-1.39-1.366-3.18-2.098-5.142-2.098c-1.961,0-3.771,0.731-5.162,2.098c-1.389,1.387-2.113,3.158-2.113,5.121
		s0.725,3.735,2.113,5.101c1.373,1.368,3.22,2.119,5.162,2.119c1.943,0,3.752-0.751,5.142-2.119
		C372.801,94.45,373.544,92.677,373.544,90.714z"/>
	<path d="M382.761,89.676v-3.947h0.399c1.98,0,2.914,0.365,2.914,2.06c0,1.656-0.971,1.888-2.914,1.888H382.761z M382.627,91.408
		h0.248l4.532,6.16h2.495l-4.686-6.257c2.057-0.25,3.123-1.502,3.123-3.715c0-1.289-0.495-2.368-1.314-3.022
		c-0.836-0.655-1.922-0.771-3.39-0.771h-3.084v13.765h2.075V91.408z"/>
	<path d="M399.519,92.159l1.39-3.138c0.152-0.367,0.323-0.866,0.496-1.56c0.189,0.693,0.36,1.192,0.514,1.56l1.39,3.138H399.519z
		 M405.631,97.568h2.343l-6.588-14.304l-6.589,14.304h2.322l1.579-3.542h5.39L405.631,97.568z"/>
	<path d="M418.015,97.568h-2.208V85.708h-3.617v-1.905h9.425v1.905h-3.6V97.568z"/>
	<path d="M428.773,83.803h2.211v13.765h-2.211V83.803z"/>
	<path d="M449.816,90.714c0,1.386-0.515,2.656-1.465,3.639c-0.954,0.982-2.172,1.501-3.504,1.501c-1.334,0-2.572-0.519-3.524-1.501
		s-1.448-2.253-1.448-3.639c0-1.385,0.496-2.676,1.448-3.657s2.209-1.503,3.524-1.503c1.312,0,2.57,0.521,3.504,1.503
		C449.302,88.039,449.816,89.33,449.816,90.714z M452.121,90.714c0-1.945-0.743-3.734-2.133-5.121
		c-1.391-1.366-3.182-2.098-5.141-2.098c-1.962,0-3.771,0.731-5.162,2.098c-1.391,1.387-2.112,3.158-2.112,5.121
		s0.722,3.735,2.112,5.101c1.371,1.368,3.219,2.119,5.162,2.119c1.942,0,3.75-0.751,5.141-2.119
		C451.378,94.45,452.121,92.677,452.121,90.714z"/>
	<path d="M458.463,83.264l8.645,8.413c0.553,0.538,1.028,1.098,1.486,1.676v-9.55h2.037v14.304l-8.816-8.567
		c-0.496-0.48-0.934-1.001-1.314-1.539v9.567h-2.037V83.264z"/>
</g>
<g id="_xAE_">
	<g>
		<g>
			<path d="M485.234,19.887c1.881,0,3.34,1.46,3.34,3.28c0,1.86-1.459,3.3-3.359,3.3c-1.879,0-3.379-1.44-3.379-3.3
				c0-1.82,1.5-3.28,3.379-3.28H485.234z M485.195,20.547c-1.439,0-2.52,1.18-2.52,2.62c0,1.46,1.08,2.62,2.559,2.62
				c1.441,0.02,2.5-1.16,2.5-2.62c0-1.44-1.059-2.62-2.52-2.62H485.195z M484.695,24.867h-0.76v-3.26
				c0.299-0.06,0.719-0.12,1.26-0.12c0.619,0,0.9,0.1,1.141,0.26c0.18,0.14,0.318,0.4,0.318,0.7c0,0.38-0.279,0.66-0.68,0.78v0.04
				c0.32,0.1,0.5,0.36,0.6,0.8c0.102,0.5,0.16,0.7,0.24,0.8h-0.82c-0.1-0.12-0.158-0.4-0.26-0.78c-0.059-0.36-0.26-0.52-0.68-0.52
				h-0.359V24.867z M484.715,23.027h0.359c0.422,0,0.762-0.14,0.762-0.48c0-0.3-0.221-0.5-0.701-0.5c-0.199,0-0.34,0.02-0.42,0.04
				V23.027z"/>
		</g>
	</g>
</g>
</svg>
